============== For More Exclusives Visit BollyTorrent.com ================

Remember to register FREE at [url]http://www.bollytorrent.com/register.php[/url] to avail more exclusives like this one. For time being BollyTorrent.com is completely FreeLeech Forum. So hurry up......!!!!



[CENTER][IMG]http://img213.imageshack.us/img213/9809/cbtvbanner.gif[/IMG]


[FONT=Century Gothic][SIZE=3][I][B][U]Bigg Boss Season 5 *Day 8* HQ 10 Oct 2011 XviD MP3 Team BollyTv[/U][/B][/I][/SIZE][/FONT]

[CODE]
Format                           : AVI
Format/Info                      : Audio Video Interleave
File size                        : 499 MiB
Duration                         : 1h 1mn
Overall bit rate                 : 1 132 Kbps
Writing library                  : Boilsoft AVI tool build 1/release

Video
ID                               : 0
Format                           : MPEG-4 Visual
Format profile                   : Advanced Simple@L5
Format settings, BVOP            : No
Format settings, QPel            : No
Format settings, GMC             : No warppoints
Format settings, Matrix          : Default (MPEG)
Codec ID                         : XVID
Codec ID/Hint                    : XviD
Duration                         : 1h 1mn
Bit rate                         : 995 Kbps
Width                            : 512 pixels
Height                           : 392 pixels
Display aspect ratio             : 4:3
Frame rate                       : 25.000 fps
Color space                      : YUV
Chroma subsampling               : 4:2:0
Bit depth                        : 8 bits
Scan type                        : Progressive
Bits/(Pixel*Frame)               : 0.198
Stream size                      : 439 MiB (88%)
Writing library                  : XviD 1.2.1 (UTC 2008-12-04)

Audio
ID                               : 1
Format                           : MPEG Audio
Format version                   : Version 1
Format profile                   : Layer 3
Codec ID                         : 55
Codec ID/Hint                    : MP3
Duration                         : 1h 1mn
Bit rate mode                    : Constant
Bit rate                         : 128 Kbps
Channel(s)                       : 2 channels
Sampling rate                    : 44.1 KHz
Video delay                      : 24ms
Stream size                      : 56.4 MiB (11%)
Alignment                        : Split accross interleaves
Interleave, duration             : 40 ms (1.00 video frame)
Interleave, preload duration     : 500 ms



[/CODE]

[IMG]http://freeimgsharing.com/images/29700421055843852975.jpg[/IMG]

[/CENTER]


Remember to register FREE at [url]http://www.bollytorrent.com/register.php[/url] to avail more exclusives like this one. For time being BollyTorrent.com is completely FreeLeech Forum. So hurry up......!!!!

============== For More Exclusives Visit BollyTorrent.com ================